<svg id="visual" viewBox="0 0 900 40" width="900" height="40" xmlns="http://www.w3.org/2000/svg" xmlns:xlink="http://www.w3.org/1999/xlink" version="1.1"><path d="M0 16L4.8 18C9.7 20 19.3 24 29 25.8C38.7 27.7 48.3 27.3 58 27.7C67.7 28 77.3 29 87 28.7C96.7 28.3 106.3 26.7 116 22.5C125.7 18.3 135.3 11.7 145 11.8C154.7 12 164.3 19 174 23.7C183.7 28.3 193.3 30.7 203 31.3C212.7 32 222.3 31 232 26.2C241.7 21.3 251.3 12.7 261 10.7C270.7 8.7 280.3 13.3 290 14C299.7 14.7 309.3 11.3 319 13.5C328.7 15.7 338.3 23.3 348 24C357.7 24.7 367.3 18.3 377 15.5C386.7 12.7 396.3 13.3 406 16.8C415.7 20.3 425.3 26.7 435.2 25C445 23.3 455 13.7 464.8 13.3C474.7 13 484.3 22 494 25.5C503.7 29 513.3 27 523 23.7C532.7 20.3 542.3 15.7 552 11.7C561.7 7.7 571.3 4.3 581 3.5C590.7 2.7 600.3 4.3 610 9C619.7 13.7 629.3 21.3 639 22.7C648.7 24 658.3 19 668 15.3C677.7 11.7 687.3 9.3 697 9C706.7 8.7 716.3 10.3 726 13.8C735.7 17.3 745.3 22.7 755 22.2C764.7 21.7 774.3 15.3 784 13.5C793.7 11.7 803.3 14.3 813 17.5C822.7 20.7 832.3 24.3 842 22.7C851.7 21 861.3 14 871 14.3C880.7 14.7 890.3 22.3 895.2 26.2L900 30L900 41L895.2 41C890.3 41 880.7 41 871 41C861.3 41 851.7 41 842 41C832.3 41 822.7 41 813 41C803.3 41 793.7 41 784 41C774.3 41 764.7 41 755 41C745.3 41 735.7 41 726 41C716.3 41 706.7 41 697 41C687.3 41 677.7 41 668 41C658.3 41 648.7 41 639 41C629.3 41 619.7 41 610 41C600.3 41 590.7 41 581 41C571.3 41 561.7 41 552 41C542.3 41 532.7 41 523 41C513.3 41 503.7 41 494 41C484.3 41 474.7 41 464.8 41C455 41 445 41 435.2 41C425.3 41 415.7 41 406 41C396.3 41 386.7 41 377 41C367.3 41 357.7 41 348 41C338.3 41 328.7 41 319 41C309.3 41 299.7 41 290 41C280.3 41 270.7 41 261 41C251.3 41 241.7 41 232 41C222.3 41 212.7 41 203 41C193.3 41 183.7 41 174 41C164.3 41 154.7 41 145 41C135.3 41 125.7 41 116 41C106.3 41 96.7 41 87 41C77.3 41 67.7 41 58 41C48.3 41 38.7 41 29 41C19.3 41 9.7 41 4.8 41L0 41Z" fill="#166d6d" stroke-linecap="round" stroke-linejoin="miter"></path></svg>